<?xml version="1.0" encoding="UTF-8"?>
<svg width="25px" height="25px" viewBox="0 0 25 25" version="1.1" xmlns="http://www.w3.org/2000/svg" xmlns:xlink="http://www.w3.org/1999/xlink">
    <title>􀉝</title>
    <g id="perubahan-customer-page" stroke="none" stroke-width="1" fill="none" fill-rule="evenodd">
        <g id="Customer:-Profile" transform="translate(-31.000000, -332.000000)" fill-rule="nonzero">
            <g id="card-profile-wrap" transform="translate(16.000000, 312.000000)">
                <g id="􀉝" transform="translate(15.645647, 20.087402)">
                    <path d="M12,24 C13.641419,24 15.1869607,23.6872902 16.6366251,23.0618705 C18.0862895,22.4364508 19.3614573,21.571223 20.4621285,20.4661871 C21.5627996,19.3611511 22.4276127,18.0853717 23.0565676,16.6388489 C23.6855225,15.1923261 24,13.6441247 24,11.9942446 C24,10.3520384 23.6855225,8.80767386 23.0565676,7.36115108 C22.4276127,5.9146283 21.5627996,4.63884892 20.4621285,3.53381295 C19.3614573,2.42877698 18.084372,1.56354916 16.6308725,0.938129496 C15.177373,0.312709832 13.6299137,0 11.9884947,0 C10.3470757,0 8.80153404,0.312709832 7.35186961,0.938129496 C5.90220518,1.56354916 4.62703739,2.42877698 3.52636625,3.53381295 C2.42569511,4.63884892 1.56279962,5.9146283 0.93767977,7.36115108 C0.312559923,8.80767386 0,10.3520384 0,11.9942446 C0,13.6441247 0.312559923,15.1923261 0.93767977,16.6388489 C1.56279962,18.0853717 2.42761266,19.3611511 3.53211889,20.4661871 C4.63662512,21.571223 5.91371045,22.4364508 7.36337488,23.0618705 C8.81303931,23.6872902 10.358581,24 12,24 Z" id="Shape" fill="#2CD76D"></path>
                    <path d="M8.76701822,7.05611511 C9.34228188,7.05611511 9.87344199,7.16738609 10.3604986,7.38992806 C10.8475551,7.61247002 11.2214765,7.90791367 11.4822627,8.27625899 C11.5589645,8.39904077 11.5973154,8.51414868 11.5973154,8.62158273 L11.5973154,16.5985612 C11.5973154,16.7673861 11.5129434,16.8517986 11.3441994,16.8517986 C11.2751678,16.8517986 11.2099712,16.8172662 11.1486098,16.7482014 C10.8341323,16.494964 10.4985618,16.3069544 10.1418984,16.1841727 C9.7852349,16.0613909 9.41514861,16 9.0316395,16 C8.1725791,16 7.42090125,16.2570743 6.77660594,16.771223 C6.68456376,16.8326139 6.59827421,16.8786571 6.5177373,16.9093525 C6.43720038,16.940048 6.34707574,16.9553957 6.24736337,16.9553957 C5.88686481,16.9553957 5.70661553,16.7788969 5.70661553,16.4258993 L5.70661553,9.00143885 C5.70661553,8.87865707 5.71236817,8.78657074 5.72387344,8.72517986 C5.73537872,8.66378897 5.7641419,8.59472422 5.81016299,8.51798561 C6.063279,8.06522782 6.46979866,7.70839329 7.02972196,7.44748201 C7.58964525,7.18657074 8.16874401,7.05611511 8.76701822,7.05611511 Z" id="Path" fill="#1B2026"></path>
                    <path d="M15.2444871,7.05611511 C15.8427613,7.05611511 16.4199425,7.18657074 16.9760307,7.44748201 C17.5321189,7.70839329 17.9405561,8.06522782 18.2013423,8.51798561 C18.2473634,8.58705036 18.2761266,8.65419664 18.2876318,8.71942446 C18.2991371,8.78465228 18.3048897,8.87865707 18.3048897,9.00143885 L18.3048897,16.4258993 C18.3048897,16.7788969 18.1246405,16.9553957 17.7641419,16.9553957 C17.6644295,16.9553957 17.5762224,16.940048 17.4995206,16.9093525 C17.4228188,16.8786571 17.3346117,16.8326139 17.2348993,16.771223 C16.5982742,16.2570743 15.8427613,16 14.9683605,16 C14.5925216,16 14.2243528,16.0613909 13.8638543,16.1841727 C13.5033557,16.3069544 13.1735379,16.494964 12.8744008,16.7482014 C12.7976989,16.8172662 12.7286673,16.8517986 12.6673058,16.8517986 C12.4985618,16.8517986 12.4141898,16.7673861 12.4141898,16.5985612 L12.4141898,8.62158273 C12.4141898,8.51414868 12.4525407,8.39904077 12.5292426,8.27625899 C12.7900288,7.90791367 13.1639501,7.61247002 13.6510067,7.38992806 C14.1380633,7.16738609 14.6692234,7.05611511 15.2444871,7.05611511 Z" id="Path" fill="#1B2026"></path>
                </g>
            </g>
        </g>
    </g>
</svg>