<?xml version="1.0" encoding="UTF-8"?>
<svg width="25px" height="25px" viewBox="0 0 25 25" version="1.1" xmlns="http://www.w3.org/2000/svg" xmlns:xlink="http://www.w3.org/1999/xlink">
    <title>Group 2</title>
    <g id="perubahan-customer-page" stroke="none" stroke-width="1" fill="none" fill-rule="evenodd">
        <g id="Customer:-Profile" transform="translate(-32.000000, -260.000000)" fill-rule="nonzero">
            <g id="card-profile-wrap" transform="translate(16.000000, 241.000000)">
                <g id="Group-2" transform="translate(16.272461, 19.897461)">
                    <path d="M12,24 C13.6392157,24 15.1823529,23.6862745 16.6294118,23.0588235 C18.0764706,22.4313725 19.3529412,21.5647059 20.4588235,20.4588235 C21.5647059,19.3529412 22.4313725,18.0764706 23.0588235,16.6294118 C23.6862745,15.1823529 24,13.6392157 24,12 C24,10.3607843 23.6862745,8.81764706 23.0588235,7.37058824 C22.4313725,5.92352941 21.5647059,4.64705882 20.4588235,3.54117647 C19.3529412,2.43529412 18.0745098,1.56862745 16.6235294,0.941176471 C15.172549,0.31372549 13.627451,0 11.9882353,0 C10.3490196,0 8.80588235,0.31372549 7.35882353,0.941176471 C5.91176471,1.56862745 4.6372549,2.43529412 3.53529412,3.54117647 C2.43333333,4.64705882 1.56862745,5.92352941 0.941176471,7.37058824 C0.31372549,8.81764706 0,10.3607843 0,12 C0,13.6392157 0.31372549,15.1823529 0.941176471,16.6294118 C1.56862745,18.0764706 2.43529412,19.3529412 3.54117647,20.4588235 C4.64705882,21.5647059 5.92352941,22.4313725 7.37058824,23.0588235 C8.81764706,23.6862745 10.3607843,24 12,24 Z" id="Shape" fill="#2CD76D"></path>
                    <g id="􀞚" transform="translate(4.865234, 3.991211)" fill="#1B2026">
                        <path d="M6.79003906,16.5019531 C6.85644531,16.5019531 6.93806966,16.489502 7.03491211,16.4645996 C7.13175456,16.4396973 7.2327474,16.3995768 7.33789062,16.3442383 C8.52213542,15.7244466 9.51407878,15.1655273 10.3137207,14.6674805 C11.1133626,14.1694336 11.7525228,13.6769206 12.2312012,13.1899414 C12.7098796,12.7029622 13.054362,12.1786296 13.2646484,11.6169434 C13.4749349,11.0552572 13.5800781,10.4008789 13.5800781,9.65380859 L13.5800781,3.39501953 C13.5800781,2.96891276 13.490153,2.66178385 13.3103027,2.47363281 C13.1304525,2.28548177 12.8662109,2.11946615 12.5175781,1.97558594 C12.3238932,1.89257812 12.0582682,1.7874349 11.7207031,1.66015625 C11.383138,1.5328776 11.0109863,1.39453125 10.604248,1.24511719 C10.1975098,1.09570312 9.79077148,0.946289062 9.3840332,0.796875 C8.97729492,0.647460938 8.60652669,0.513264974 8.27172852,0.394287109 C7.93693034,0.275309245 7.6726888,0.182617188 7.47900391,0.116210938 C7.36832682,0.0830078125 7.25488281,0.0553385417 7.13867188,0.033203125 C7.02246094,0.0110677083 6.90625,0 6.79003906,0 C6.67382812,0 6.55900065,0.0110677083 6.44555664,0.033203125 C6.33211263,0.0553385417 6.22005208,0.0830078125 6.109375,0.116210938 C5.9156901,0.182617188 5.6500651,0.275309245 5.3125,0.394287109 C4.9749349,0.513264974 4.6027832,0.646077474 4.19604492,0.792724609 C3.78930664,0.939371745 3.38256836,1.08878581 2.97583008,1.2409668 C2.5690918,1.39314779 2.1969401,1.53426107 1.859375,1.66430664 C1.5218099,1.79435221 1.2561849,1.89811198 1.0625,1.97558594 C0.719401042,2.11393229 0.456542969,2.27856445 0.273925781,2.46948242 C0.0913085938,2.66040039 0,2.96891276 0,3.39501953 L0,9.65380859 C0,10.4008789 0.10929362,11.0497233 0.327880859,11.6003418 C0.546468099,12.1509603 0.897867839,12.6628418 1.38208008,13.1359863 C1.86629232,13.6091309 2.5082194,14.0974935 3.30786133,14.6010742 C4.10750326,15.1046549 5.08561198,15.6857096 6.2421875,16.3442383 C6.34733073,16.3995768 6.44832357,16.4396973 6.54516602,16.4645996 C6.64200846,16.489502 6.72363281,16.5019531 6.79003906,16.5019531 Z M3.70214844,11.3305664 L3.70214844,7.92724609 C3.70214844,7.3351237 3.95117188,7.02246094 4.44921875,6.98925781 L4.44921875,5.98486328 C4.44921875,5.19352214 4.66503906,4.55712891 5.09667969,4.07568359 C5.52832031,3.59423828 6.09277344,3.35351562 6.79003906,3.35351562 C7.48730469,3.35351562 8.05175781,3.59423828 8.48339844,4.07568359 C8.91503906,4.55712891 9.13085938,5.19352214 9.13085938,5.98486328 L9.13085938,6.98925781 C9.6344401,7.02246094 9.88623047,7.3351237 9.88623047,7.92724609 L9.88623047,11.3305664 C9.88623047,11.9558919 9.5929362,12.2685547 9.00634766,12.2685547 L4.57373047,12.2685547 C3.99267578,12.2685547 3.70214844,11.9558919 3.70214844,11.3305664 Z M5.34570312,6.98095703 L8.234375,6.98095703 L8.234375,5.88525391 C8.234375,5.38720703 8.10294596,4.98461914 7.84008789,4.67749023 C7.57722982,4.37036133 7.22721354,4.21679688 6.79003906,4.21679688 C6.35839844,4.21679688 6.00976562,4.37036133 5.74414062,4.67749023 C5.47851562,4.98461914 5.34570312,5.38720703 5.34570312,5.88525391 L5.34570312,6.98095703 Z" id="Shape"></path>
                    </g>
                </g>
            </g>
        </g>
    </g>
</svg>