<?xml version="1.0" encoding="UTF-8"?>
<svg width="24px" height="24px" viewBox="0 0 24 24" version="1.1" xmlns="http://www.w3.org/2000/svg" xmlns:xlink="http://www.w3.org/1999/xlink">
    <title>coin</title>
    <defs>
        <path d="M6.22996964,7.10333276 C5.70636914,6.67692135 5.39360589,5.86155576 5.7586109,5.41676584 C6.12361591,4.97197592 6.83046787,5.11613375 7.28080062,5.23989571 C7.73113338,5.36365766 15.9795917,7.69062465 16.6236482,9.23061571 C17.2677047,10.7706068 15.054124,18.2974255 14.8973325,18.8682466 C14.7405409,19.4390677 14.5046334,20.0136901 13.8515411,19.849615 C13.1984487,19.6855399 12.9440225,19.1285887 12.9440225,18.5740005 C12.9440225,18.0194123 12.746763,11.7520596 12.5503969,11.0863573 C12.3540308,10.420655 6.75357014,7.52974417 6.22996964,7.10333276 Z" id="path-1"></path>
    </defs>
    <g id="coin" stroke="none" stroke-width="1" fill="none" fill-rule="evenodd">
        <g id="Group-3-Copy">
            <path d="M24,11.9997161 C24,18.6272682 18.6278995,24 12.0001419,24 C5.37295213,24 0,18.6272682 0,11.9997161 C0,5.37244789 5.37295213,0 12.0001419,0 C18.6278995,0 24,5.37244789 24,11.9997161" id="Fill-489" fill="#CCCCCC"></path>
            <path d="M21.9272727,12.0546877 C21.9272727,17.5675977 17.4585705,22.0363636 11.945739,22.0363636 C6.43262311,22.0363636 1.96363636,17.5675977 1.96363636,12.0546877 C1.96363636,6.54206222 6.43262311,2.07272727 11.945739,2.07272727 C17.4585705,2.07272727 21.9272727,6.54206222 21.9272727,12.0546877" id="Fill-490" fill="#1B2026"></path>
            <mask id="mask-2" fill="white">
                <use xlink:href="#path-1" transform="translate(11.170663, 12.496503) rotate(7.000000) translate(-11.170663, -12.496503) "></use>
            </mask>
            <use id="Path-59" fill="#C0CCC6" transform="translate(11.170663, 12.496503) rotate(7.000000) translate(-11.170663, -12.496503) " xlink:href="#path-1"></use>
            <path d="M5.63491125,7.44336612 C5.11131075,7.01695472 4.79854751,6.20158913 5.16355252,5.7567992 C5.52855752,5.31200928 6.23540949,5.45616712 6.68574224,5.57992907 C7.13607499,5.70369102 15.3845333,8.03065802 16.0285898,9.57064907 C16.6726463,11.1106401 14.4590656,18.6374589 14.3022741,19.20828 C14.1454825,19.779101 13.909575,20.3537235 13.2564827,20.1896484 C12.6033903,20.0255733 12.3489641,19.468622 12.3489641,18.9140338 C12.3489641,18.3594456 12.1517046,12.092093 11.9553385,11.4263907 C11.7589724,10.7606884 6.15851176,7.86977753 5.63491125,7.44336612 Z" id="Path-59" fill="#F7FDFC" mask="url(#mask-2)" transform="translate(10.575605, 12.836536) rotate(7.000000) translate(-10.575605, -12.836536) "></path>
        </g>
    </g>
</svg>