<?xml version="1.0" encoding="UTF-8"?>
<svg width="30px" height="30px" viewBox="0 0 30 30" version="1.1" xmlns="http://www.w3.org/2000/svg" xmlns:xlink="http://www.w3.org/1999/xlink">
    <title>lock</title>
    <g id="Symbols" stroke="none" stroke-width="1" fill="none" fill-rule="evenodd">
        <g id="merchant-detail-card" transform="translate(-12.000000, -150.000000)">
            <g id="lock" transform="translate(12.000000, 150.000000)">
                <circle id="Oval" fill="#F7FDFC" cx="15" cy="15" r="15"></circle>
                <g id="􀒳" transform="translate(1.000000, 1.000000)" fill="#1B2026" fill-rule="nonzero">
                    <path d="M14,28 C15.9194969,28 17.7245283,27.636621 19.4150943,26.9098631 C21.1056604,26.1831052 22.5937107,25.1744534 23.8792453,23.8839075 C25.1647799,22.5933616 26.172956,21.1024068 26.9037736,19.4110429 C27.6345912,17.7196791 28,15.9137958 28,13.9933931 C28,12.0729904 27.6345912,10.2693094 26.9037736,8.58235017 C26.172956,6.89539091 25.1647799,5.40663835 23.8792453,4.1160925 C22.5937107,2.82554664 21.1056604,1.81689476 19.4150943,1.09013686 C17.7245283,0.363378952 15.9150943,0 13.9867925,0 C12.0672956,0 10.2644654,0.363378952 8.57830189,1.09013686 C6.89213836,1.81689476 5.40628931,2.82554664 4.12075472,4.1160925 C2.83522013,5.40663835 1.82704403,6.89539091 1.09622642,8.58235017 C0.365408805,10.2693094 0,12.0729904 0,13.9933931 C0,15.9137958 0.365408805,17.7196791 1.09622642,19.4110429 C1.82704403,21.1024068 2.83522013,22.5933616 4.12075472,23.8839075 C5.40628931,25.1744534 6.89433962,26.1831052 8.58490566,26.9098631 C10.2754717,27.636621 12.0805031,28 14,28 Z M9.08679245,19.1203398 L9.08679245,13.9273242 C9.08679245,13.0287872 9.43899371,12.5178543 10.1433962,12.3945257 L10.1433962,10.9806513 C10.1433962,9.69450999 10.4977987,8.65943055 11.2066038,7.87541293 C11.9154088,7.09139531 12.8421384,6.6993865 13.9867925,6.6993865 C15.1402516,6.6993865 16.0713836,7.09139531 16.7801887,7.87541293 C17.4889937,8.65943055 17.8433962,9.69450999 17.8433962,10.9806513 L17.8433962,12.3945257 C18.5566038,12.5178543 18.9132075,13.0287872 18.9132075,13.9273242 L18.9132075,19.1203398 C18.9132075,20.1950606 18.4069182,20.732421 17.3943396,20.732421 L10.5924528,20.732421 C9.58867925,20.732421 9.08679245,20.1950606 9.08679245,19.1203398 Z M12.1509434,12.3284568 L15.8358491,12.3284568 L15.8358491,10.8617272 C15.8358491,10.192229 15.6685535,9.65707095 15.3339623,9.25625295 C14.9993711,8.85543495 14.5503145,8.65502596 13.9867925,8.65502596 C13.4320755,8.65502596 12.9874214,8.85763725 12.6528302,9.26285984 C12.318239,9.66808243 12.1509434,10.2010382 12.1509434,10.8617272 L12.1509434,12.3284568 Z" id="Shape"></path>
                </g>
            </g>
        </g>
    </g>
</svg>